<svg width="130" height="32" viewBox="0 0 130 32" fill="none" xmlns="http://www.w3.org/2000/svg">
    <g clip-path="url(#clip0_2378_5)">
    <rect width="130" height="32" rx="16" fill="#FFEDEC"/>
    <path d="M39.2031 12.465C39.2324 12.3697 39.2838 12.3 39.3571 12.256C39.4304 12.2047 39.5111 12.179 39.5991 12.179C39.7164 12.179 39.8154 12.2157 39.8961 12.289C39.9841 12.355 40.0281 12.4467 40.0281 12.564C40.0281 12.6153 40.0171 12.674 39.9951 12.74L37.5091 19.747C37.4724 19.8497 37.4101 19.9303 37.3221 19.989C37.2341 20.0403 37.1351 20.066 37.0251 20.066C36.9224 20.066 36.8271 20.0403 36.7391 19.989C36.6511 19.9303 36.5888 19.8497 36.5521 19.747L34.3961 13.653L32.2181 19.747C32.1814 19.8497 32.1191 19.9303 32.0311 19.989C31.9431 20.0403 31.8478 20.066 31.7451 20.066C31.6424 20.066 31.5471 20.0403 31.4591 19.989C31.3711 19.9303 31.3088 19.8497 31.2721 19.747L28.7751 12.74C28.7531 12.6813 28.7421 12.6263 28.7421 12.575C28.7421 12.4577 28.7861 12.3623 28.8741 12.289C28.9694 12.2157 29.0758 12.179 29.1931 12.179C29.2811 12.179 29.3618 12.2047 29.4351 12.256C29.5158 12.3 29.5708 12.3697 29.6001 12.465L31.7671 18.713L33.9671 12.531C34.0038 12.421 34.0624 12.3403 34.1431 12.289C34.2238 12.2303 34.3118 12.201 34.4071 12.201C34.5024 12.201 34.5904 12.2303 34.6711 12.289C34.7518 12.3477 34.8104 12.432 34.8471 12.542L37.0141 18.735L39.2031 12.465ZM45.3598 14.511C45.9905 14.511 46.4672 14.6907 46.7898 15.05C47.1125 15.402 47.2738 15.93 47.2738 16.634V19.615C47.2738 19.7543 47.2335 19.8643 47.1528 19.945C47.0722 20.0183 46.9658 20.055 46.8338 20.055C46.6945 20.055 46.5845 20.0183 46.5038 19.945C46.4232 19.8643 46.3828 19.7543 46.3828 19.615V16.656C46.3828 16.1793 46.2838 15.8273 46.0858 15.6C45.8952 15.3727 45.5872 15.259 45.1618 15.259C44.6705 15.259 44.2782 15.4093 43.9848 15.71C43.6915 16.0107 43.5448 16.4177 43.5448 16.931V19.615C43.5448 19.7543 43.5045 19.8643 43.4238 19.945C43.3505 20.0183 43.2442 20.055 43.1048 20.055C42.9655 20.055 42.8555 20.0183 42.7748 19.945C42.6942 19.8643 42.6538 19.7543 42.6538 19.615V12.619C42.6538 12.4943 42.6942 12.3917 42.7748 12.311C42.8628 12.2303 42.9728 12.19 43.1048 12.19C43.2442 12.19 43.3505 12.2303 43.4238 12.311C43.5045 12.3843 43.5448 12.487 43.5448 12.619V15.501C43.7208 15.1783 43.9665 14.9327 44.2818 14.764C44.5972 14.5953 44.9565 14.511 45.3598 14.511ZM51.8805 14.511C53.2225 14.511 53.8935 15.215 53.8935 16.623V19.615C53.8935 19.747 53.8532 19.8533 53.7725 19.934C53.6992 20.0147 53.5965 20.055 53.4645 20.055C53.3325 20.055 53.2262 20.0147 53.1455 19.934C53.0648 19.8533 53.0245 19.747 53.0245 19.615V19.087C52.8852 19.4023 52.6725 19.648 52.3865 19.824C52.1005 19.9927 51.7705 20.077 51.3965 20.077C51.0518 20.077 50.7328 20.0073 50.4395 19.868C50.1535 19.7287 49.9262 19.5343 49.7575 19.285C49.5888 19.0357 49.5045 18.7607 49.5045 18.46C49.5045 18.0567 49.6072 17.745 49.8125 17.525C50.0178 17.2977 50.3552 17.1363 50.8245 17.041C51.2938 16.9383 51.9465 16.887 52.7825 16.887H53.0245V16.524C53.0245 16.084 52.9328 15.7613 52.7495 15.556C52.5735 15.3507 52.2838 15.248 51.8805 15.248C51.3818 15.248 50.8758 15.3837 50.3625 15.655C50.1645 15.7797 50.0252 15.842 49.9445 15.842C49.8565 15.842 49.7832 15.809 49.7245 15.743C49.6658 15.677 49.6365 15.5927 49.6365 15.49C49.6365 15.3873 49.6658 15.2993 49.7245 15.226C49.7905 15.1453 49.8932 15.0647 50.0325 14.984C50.2892 14.8373 50.5788 14.7237 50.9015 14.643C51.2315 14.555 51.5578 14.511 51.8805 14.511ZM51.5175 19.373C51.9575 19.373 52.3168 19.2263 52.5955 18.933C52.8815 18.6323 53.0245 18.2473 53.0245 17.778V17.459H52.8265C52.1812 17.459 51.6898 17.4883 51.3525 17.547C51.0152 17.5983 50.7732 17.69 50.6265 17.822C50.4872 17.9467 50.4175 18.1337 50.4175 18.383C50.4175 18.669 50.5202 18.9073 50.7255 19.098C50.9382 19.2813 51.2022 19.373 51.5175 19.373ZM58.7852 19.351C59.0419 19.373 59.1702 19.4903 59.1702 19.703C59.1702 19.8277 59.1225 19.923 59.0272 19.989C58.9392 20.0477 58.8035 20.0697 58.6202 20.055L58.3232 20.033C57.7365 19.989 57.3039 19.813 57.0252 19.505C56.7465 19.197 56.6072 18.7313 56.6072 18.108V15.347H55.8702C55.7455 15.347 55.6465 15.3177 55.5732 15.259C55.5072 15.193 55.4742 15.1087 55.4742 15.006C55.4742 14.896 55.5072 14.808 55.5732 14.742C55.6465 14.676 55.7455 14.643 55.8702 14.643H56.6072V13.4C56.6072 13.2607 56.6475 13.1543 56.7282 13.081C56.8089 13.0003 56.9189 12.96 57.0582 12.96C57.1902 12.96 57.2965 13.0003 57.3772 13.081C57.4579 13.1543 57.4982 13.2607 57.4982 13.4V14.643H58.7192C58.8365 14.643 58.9282 14.676 58.9942 14.742C59.0675 14.808 59.1042 14.896 59.1042 15.006C59.1042 15.1087 59.0675 15.193 58.9942 15.259C58.9282 15.3177 58.8365 15.347 58.7192 15.347H57.4982V18.152C57.4982 18.5553 57.5789 18.8487 57.7402 19.032C57.9089 19.208 58.1582 19.307 58.4882 19.329L58.7852 19.351ZM71.7819 14.819C71.8552 14.643 71.9762 14.555 72.1449 14.555C72.2549 14.555 72.3539 14.5917 72.4419 14.665C72.5299 14.7383 72.5739 14.83 72.5739 14.94C72.5739 14.9913 72.5629 15.0463 72.5409 15.105L70.7149 19.725C70.6709 19.8203 70.6049 19.8973 70.5169 19.956C70.4362 20.0073 70.3445 20.033 70.2419 20.033C70.1465 20.033 70.0549 20.0073 69.9669 19.956C69.8862 19.8973 69.8239 19.8203 69.7799 19.725L68.2619 15.864L66.7549 19.725C66.7182 19.8203 66.6559 19.8973 66.5679 19.956C66.4799 20.0073 66.3845 20.033 66.2819 20.033C66.1865 20.033 66.0949 20.0073 66.0069 19.956C65.9189 19.8973 65.8529 19.8203 65.8089 19.725L63.9829 15.116C63.9609 15.0573 63.9499 15.006 63.9499 14.962C63.9499 14.8447 63.9975 14.7457 64.0929 14.665C64.1955 14.5843 64.3055 14.544 64.4229 14.544C64.5989 14.544 64.7235 14.632 64.7969 14.808L66.3039 18.867L67.8549 14.841C67.8989 14.7457 67.9575 14.6723 68.0309 14.621C68.1115 14.5697 68.1959 14.544 68.2839 14.544C68.3792 14.544 68.4635 14.5697 68.5369 14.621C68.6175 14.6723 68.6762 14.7457 68.7129 14.841L70.2639 18.856L71.7819 14.819ZM78.5839 18.757C78.6646 18.757 78.7342 18.79 78.7929 18.856C78.8516 18.922 78.8809 19.0063 78.8809 19.109C78.8809 19.2923 78.7526 19.461 78.4959 19.615C78.2319 19.769 77.9532 19.8863 77.6599 19.967C77.3666 20.0403 77.0806 20.077 76.8019 20.077C75.9732 20.077 75.3169 19.8313 74.8329 19.34C74.3562 18.8487 74.1179 18.1703 74.1179 17.305C74.1179 16.755 74.2242 16.271 74.4369 15.853C74.6496 15.4277 74.9466 15.0977 75.3279 14.863C75.7166 14.6283 76.1566 14.511 76.6479 14.511C77.3446 14.511 77.8982 14.7383 78.3089 15.193C78.7196 15.6477 78.9249 16.2637 78.9249 17.041C78.9249 17.1877 78.8956 17.294 78.8369 17.36C78.7782 17.426 78.6829 17.459 78.5509 17.459H75.0089C75.0749 18.7203 75.6726 19.351 76.8019 19.351C77.0879 19.351 77.3336 19.3143 77.5389 19.241C77.7442 19.1603 77.9642 19.054 78.1989 18.922C78.3896 18.812 78.5179 18.757 78.5839 18.757ZM76.6589 15.204C76.1896 15.204 75.8119 15.3507 75.5259 15.644C75.2472 15.9373 75.0822 16.3517 75.0309 16.887H78.1439C78.1292 16.3443 77.9936 15.93 77.7369 15.644C77.4802 15.3507 77.1209 15.204 76.6589 15.204ZM88.946 12.19C89.0854 12.19 89.1954 12.2303 89.276 12.311C89.3567 12.3917 89.397 12.4943 89.397 12.619V19.615C89.397 19.747 89.3567 19.8533 89.276 19.934C89.1954 20.0147 89.0854 20.055 88.946 20.055C88.8067 20.055 88.6967 20.0147 88.616 19.934C88.5427 19.8533 88.506 19.747 88.506 19.615V19.021C88.3447 19.3583 88.1064 19.6187 87.791 19.802C87.483 19.9853 87.12 20.077 86.702 20.077C86.2327 20.077 85.8184 19.9597 85.459 19.725C85.0997 19.4903 84.821 19.164 84.623 18.746C84.425 18.3207 84.326 17.8293 84.326 17.272C84.326 16.722 84.425 16.238 84.623 15.82C84.821 15.402 85.0997 15.0793 85.459 14.852C85.8184 14.6247 86.2327 14.511 86.702 14.511C87.12 14.511 87.483 14.6027 87.791 14.786C88.1064 14.9693 88.3447 15.2297 88.506 15.567V12.619C88.506 12.487 88.5427 12.3843 88.616 12.311C88.6967 12.2303 88.8067 12.19 88.946 12.19ZM86.878 19.34C87.3987 19.34 87.7984 19.164 88.077 18.812C88.363 18.4527 88.506 17.9467 88.506 17.294C88.506 16.6413 88.363 16.139 88.077 15.787C87.7984 15.435 87.3987 15.259 86.878 15.259C86.3574 15.259 85.9504 15.435 85.657 15.787C85.371 16.139 85.228 16.634 85.228 17.272C85.228 17.9247 85.371 18.4343 85.657 18.801C85.9504 19.1603 86.3574 19.34 86.878 19.34ZM94.0551 20.077C93.5491 20.077 93.1018 19.9633 92.7131 19.736C92.3318 19.5087 92.0348 19.186 91.8221 18.768C91.6168 18.3427 91.5141 17.8513 91.5141 17.294C91.5141 16.7367 91.6168 16.249 91.8221 15.831C92.0348 15.4057 92.3318 15.0793 92.7131 14.852C93.1018 14.6247 93.5491 14.511 94.0551 14.511C94.5611 14.511 95.0084 14.6247 95.3971 14.852C95.7858 15.0793 96.0828 15.4057 96.2881 15.831C96.5008 16.249 96.6071 16.7367 96.6071 17.294C96.6071 17.8513 96.5008 18.3427 96.2881 18.768C96.0828 19.186 95.7858 19.5087 95.3971 19.736C95.0084 19.9633 94.5611 20.077 94.0551 20.077ZM94.0551 19.34C94.5831 19.34 94.9864 19.1677 95.2651 18.823C95.5511 18.471 95.6941 17.9613 95.6941 17.294C95.6941 16.6413 95.5511 16.139 95.2651 15.787C94.9791 15.4277 94.5758 15.248 94.0551 15.248C93.5344 15.248 93.1311 15.4277 92.8451 15.787C92.5591 16.139 92.4161 16.6413 92.4161 17.294C92.4161 17.954 92.5554 18.46 92.8341 18.812C93.1201 19.164 93.5271 19.34 94.0551 19.34ZM100.065 18.031C99.9843 18.031 99.9183 18.0017 99.8669 17.943C99.8156 17.8843 99.7899 17.8037 99.7899 17.701C99.7899 17.2463 99.8706 16.8577 100.032 16.535C100.201 16.2123 100.439 15.8603 100.747 15.479C100.996 15.1637 101.18 14.896 101.297 14.676C101.422 14.456 101.484 14.2103 101.484 13.939C101.484 13.6237 101.37 13.378 101.143 13.202C100.916 13.0187 100.608 12.927 100.219 12.927C99.8889 12.927 99.5846 12.993 99.3059 13.125C99.0273 13.2497 98.7119 13.444 98.3599 13.708C98.2353 13.796 98.1326 13.84 98.0519 13.84C97.9639 13.84 97.8906 13.8033 97.8319 13.73C97.7806 13.6493 97.7549 13.5577 97.7549 13.455C97.7549 13.3083 97.8136 13.18 97.9309 13.07C98.2243 12.7913 98.5799 12.5713 98.9979 12.41C99.4233 12.2413 99.8449 12.157 100.263 12.157C100.901 12.157 101.414 12.3147 101.803 12.63C102.199 12.9453 102.397 13.3597 102.397 13.873C102.397 14.2617 102.313 14.599 102.144 14.885C101.983 15.1637 101.733 15.4937 101.396 15.875C101.081 16.2343 100.835 16.5533 100.659 16.832C100.49 17.1033 100.388 17.4187 100.351 17.778C100.344 17.8587 100.314 17.921 100.263 17.965C100.212 18.009 100.146 18.031 100.065 18.031ZM100.076 20.055C99.8999 20.055 99.7533 19.9963 99.6359 19.879C99.5259 19.7617 99.4709 19.615 99.4709 19.439C99.4709 19.263 99.5259 19.1163 99.6359 18.999C99.7533 18.8743 99.8999 18.812 100.076 18.812C100.252 18.812 100.395 18.8743 100.505 18.999C100.622 19.1163 100.681 19.263 100.681 19.439C100.681 19.615 100.622 19.7617 100.505 19.879C100.395 19.9963 100.252 20.055 100.076 20.055Z" fill="#EC615B"/>
    </g>
    <defs>
    <clipPath id="clip0_2378_5">
    <rect width="130" height="32" fill="white"/>
    </clipPath>
    </defs>
    </svg>
    